<?xml version="1.0" encoding="utf-8"?>
<!-- Generator: Adobe Illustrator 23.0.0, SVG Export Plug-In . SVG Version: 6.00 Build 0)  -->
<svg version="1.1" id="Social_Icons" xmlns="http://www.w3.org/2000/svg" xmlns:xlink="http://www.w3.org/1999/xlink" x="0px"
	 y="0px" viewBox="0 0 128 128" style="enable-background:new 0 0 128 128;" xml:space="preserve">
<style type="text/css">
	.st0{fill:none;}
	.st1{fill-rule:evenodd;clip-rule:evenodd;}
</style>
<g id="_x37__stroke">
	<g id="Instagram_1_">
		<rect x="20.3" y="20.3" class="st0" width="87.3" height="87.3"/>
		<path id="Instagram" class="st1" d="M87.8,44.6c0,2.4-2,4.4-4.4,4.4S79,47,79,44.6s2-4.4,4.4-4.4C85.8,40.2,87.8,42.2,87.8,44.6z
			 M64,76.1c-6.7,0-12.1-5.4-12.1-12.1S57.3,51.9,64,51.9S76.1,57.3,76.1,64S70.7,76.1,64,76.1z M64,45.3
			c-10.3,0-18.7,8.4-18.7,18.7S53.7,82.7,64,82.7S82.7,74.3,82.7,64S74.3,45.3,64,45.3z M64,34.2c9.7,0,10.9,0,14.7,0.2
			c3.5,0.2,5.5,0.8,6.7,1.3c1.7,0.7,2.9,1.4,4.2,2.7c1.3,1.3,2.1,2.5,2.7,4.2c0.5,1.3,1.1,3.2,1.3,6.7c0.2,3.8,0.2,5,0.2,14.7
			s0,10.9-0.2,14.7c-0.2,3.5-0.8,5.5-1.3,6.7c-0.7,1.7-1.4,2.9-2.7,4.2c-1.3,1.3-2.5,2.1-4.2,2.7c-1.3,0.5-3.2,1.1-6.7,1.3
			c-3.8,0.2-5,0.2-14.7,0.2s-10.9,0-14.7-0.2c-3.5-0.2-5.5-0.8-6.7-1.3c-1.7-0.7-2.9-1.4-4.2-2.7c-1.3-1.3-2.1-2.5-2.7-4.2
			c-0.5-1.3-1.1-3.2-1.3-6.7c-0.2-3.8-0.2-5-0.2-14.7s0-10.9,0.2-14.7c0.2-3.5,0.8-5.5,1.3-6.7c0.7-1.7,1.4-2.9,2.7-4.2
			s2.5-2.1,4.2-2.7c1.3-0.5,3.2-1.1,6.7-1.3C53.1,34.2,54.3,34.2,64,34.2z M64,27.7c-9.9,0-11.1,0-15,0.2s-6.5,0.8-8.8,1.7
			c-2.4,0.9-4.4,2.2-6.4,4.2s-3.3,4-4.2,6.4c-0.9,2.3-1.5,5-1.7,8.8c-0.2,3.9-0.2,5.1-0.2,15s0,11.1,0.2,15s0.8,6.5,1.7,8.8
			c0.9,2.4,2.2,4.4,4.2,6.4s4,3.3,6.4,4.2c2.3,0.9,5,1.5,8.8,1.7c3.9,0.2,5.1,0.2,15,0.2s11.1,0,15-0.2s6.5-0.8,8.8-1.7
			c2.4-0.9,4.4-2.2,6.4-4.2s3.3-4,4.2-6.4c0.9-2.3,1.5-5,1.7-8.8c0.2-3.9,0.2-5.1,0.2-15s0-11.1-0.2-15s-0.8-6.5-1.7-8.8
			c-0.9-2.4-2.2-4.4-4.2-6.4s-4-3.3-6.4-4.2c-2.3-0.9-5-1.5-8.8-1.7C75.1,27.7,73.9,27.7,64,27.7z"/>
	</g>
</g>
</svg>
