<?xml version="1.0" encoding="utf-8"?>
<!-- Generator: Adobe Illustrator 23.0.0, SVG Export Plug-In . SVG Version: 6.00 Build 0)  -->
<svg version="1.1" id="Layer_1" xmlns="http://www.w3.org/2000/svg" xmlns:xlink="http://www.w3.org/1999/xlink" x="0px" y="0px"
	 viewBox="0 0 67 67" style="enable-background:new 0 0 67 67;" xml:space="preserve">
<style type="text/css">
	.st0{fill-rule:evenodd;clip-rule:evenodd;fill:#3F3F3F;}
</style>
<g id="black">
	<g id="slice" transform="translate(-600.000000, 0.000000)">
	</g>
	<g id="linkedin" transform="translate(16.000000, 17.000000)">
		<path class="st0" d="M8.9,32.3v-23H1.8v23H8.9z M8.9,1.2c0-2.1-1.4-3.6-3.6-3.6C3-2.5,1.6-0.9,1.6,1.2c0,2,1.4,3.6,3.6,3.6h0
			C7.5,4.8,8.9,3.2,8.9,1.2z M20.5,32.3V19.2c0-0.7,0.1-1.4,0.3-1.9c0.6-1.4,1.8-2.9,4-2.9c2.8,0,4.6,1.6,4.6,4.8v13.1h7.2V18.8
			c0-7.2-3.8-10.6-9-10.6c-4.2,0-6.1,2.4-7.1,4l0.1-3.1h-7.1c0.1,2.2,0,23.1,0,23.1H20.5z"/>
	</g>
</g>
</svg>
