<?xml version="1.0" encoding="utf-8"?>
<!-- Generator: Adobe Illustrator 22.1.0, SVG Export Plug-In . SVG Version: 6.00 Build 0)  -->
<svg version="1.1" id="Layer_1" xmlns:serif="http://www.serif.com/"
	 xmlns="http://www.w3.org/2000/svg" xmlns:xlink="http://www.w3.org/1999/xlink" x="0px" y="0px" viewBox="0 0 471.3 476.4"
	 style="enable-background:new 0 0 471.3 476.4;" xml:space="preserve">
<style type="text/css">
	.st0{fill:none;}
	.st1{fill:#F3F3F3;}
	.st2{fill:#00A82D;}
</style>
<rect id="Artboard1" x="-62" y="-59.5" class="st0" width="595.3" height="595.3"/>
<g>
	<g>
		<path class="st1" d="M64.7,346.3C44.1,314.5,32.2,276.6,32.2,236c0-112.2,91.2-203.4,203.4-203.4S439,123.7,439,236
			s-91.1,203.5-203.4,203.5c-38.1,0-73.6-10.4-104.1-28.7l-99.3,33.1L64.7,346.3L64.7,346.3z"/>
		<path class="st2" d="M102.7,330.3c-19-26.7-30.1-59.2-30.1-94.4c0-90,73-163,163-163s163,73,163,163s-73,163-163,163
			c-34,0-65.6-10.4-91.9-28.3l-61.3,20.5L102.7,330.3z"/>
	</g>
	<path class="st1" d="M186.6,278.3c-24.1-29.4-40.1-65.4-45.2-104.5c-1.4-10.9,2.2-21.8,9.8-29.7s18.4-11.9,29.3-11.1l1,0.1
		c0,0,12,3.2,18.6,5c2.6,0.7,4.7,2.7,5.5,5.2c2.9,8.8,9.9,29.4,13.2,39.1c1,3.1,0.1,6.6-2.4,8.8c-5,4.2-13.2,11.1-18.4,15.5
		c-2.8,2.3-3.6,6.2-2.2,9.5c6,13,13.6,25.2,22.6,36.2c9.3,10.8,19.9,20.3,31.8,28.4c3,2.1,7,1.8,9.8-0.5
		c5.2-4.3,13.4-11.2,18.4-15.5c2.6-2.2,6.1-2.5,9.1-0.9c9,4.9,28.1,15.3,36.3,19.7c2.4,1.3,4,3.7,4.2,6.4c0.6,6.8,1.8,19.2,1.8,19.2
		l-0.1,1c-0.9,10.9-6.7,20.9-15.8,27c-9.1,6.1-20.5,7.9-30.9,4.7c-38-11.7-71-33.8-95.9-62.9L186.6,278.3L186.6,278.3z"/>
</g>
</svg>
