<?xml version="1.0" encoding="utf-8"?>
<!-- Generator: Adobe Illustrator 23.0.0, SVG Export Plug-In . SVG Version: 6.00 Build 0)  -->
<svg version="1.1"
	 id="svg2" xmlns:cc="http://creativecommons.org/ns#" xmlns:dc="http://purl.org/dc/elements/1.1/" xmlns:inkscape="http://www.inkscape.org/namespaces/inkscape" xmlns:rdf="http://www.w3.org/1999/02/22-rdf-syntax-ns#" xmlns:sodipodi="http://sodipodi.sourceforge.net/DTD/sodipodi-0.dtd" xmlns:svg="http://www.w3.org/2000/svg"
	 xmlns="http://www.w3.org/2000/svg" xmlns:xlink="http://www.w3.org/1999/xlink" x="0px" y="0px" viewBox="0 0 500 500"
	 style="enable-background:new 0 0 500 500;" xml:space="preserve">
<g id="layer1" transform="translate(0,-552.36218)">
	<g id="layer1-9" transform="translate(-549.00515,80.294372)">
	</g>
	<g id="layer1-6" transform="translate(-575.71429,39.999999)">
	</g>
	<g id="layer1-93" transform="matrix(0.99928945,0,0,0.99928945,474.7002,-40.81928)">
	</g>
	<path id="rect2989" d="M305.4,682.1c-32.8,0.8-59.1,27.6-59.1,60.6c0,4.7,0.6,9.4,1.6,13.9c-50.5-2.5-95.1-26.7-125.1-63.4
		c-5.3,9-8.2,19.4-8.2,30.5c0,21.1,10.7,39.7,27,50.5c-10-0.3-19.3-3.1-27.5-7.6c0,0.3,0,0.6,0,0.7c0,29.4,20.9,53.9,48.7,59.4
		c-5.1,1.4-10.4,2.1-16,2.1c-3.9,0-7.7-0.4-11.4-1.1c7.8,24.1,30.1,41.7,56.7,42.2c-20.8,16.3-46.9,26-75.3,26
		c-4.9,0-9.7-0.3-14.5-0.8c26.9,17.2,58.8,27.3,93,27.3C307,922.4,368,830,368,749.7c0-2.6-0.1-5.3-0.2-7.9
		c11.8-8.5,22.2-19.2,30.3-31.4c-10.9,4.8-22.6,8.1-34.8,9.5c12.6-7.5,22.2-19.4,26.7-33.6c-11.7,6.9-24.7,12-38.5,14.8
		c-11.3-11.8-27-19.1-44.5-19.1C306.4,682.1,305.8,682.1,305.4,682.1L305.4,682.1z"/>
</g>
</svg>
