<?xml version="1.0" encoding="utf-8"?>
<!-- Generator: Adobe Illustrator 23.0.0, SVG Export Plug-In . SVG Version: 6.00 Build 0)  -->
<svg version="1.1" id="Layer_1" xmlns="http://www.w3.org/2000/svg" xmlns:xlink="http://www.w3.org/1999/xlink" x="0px" y="0px"
	 viewBox="0 0 512 512" style="enable-background:new 0 0 512 512;" xml:space="preserve">
<style type="text/css">
	.st0{display:none;fill:#3F3F3F;}
	.st1{fill:#3F3F3F;}
</style>
<g>
	<path class="st0" d="M391.5,13H225.4C108.1,13,13,108.1,13,225.4v165.9C13,450.9,61.1,499,120.5,499h166
		c117.3,0,212.4-95.1,212.4-212.5v-166C499,61.1,450.9,13,391.5,13z"/>
	<circle class="st1" cx="352.4" cy="160" r="21.2"/>
	<g>
		<path class="st1" d="M323.9,99H188.1C138.9,99,99,138.9,99,188.1v135.7c0,49.2,39.9,89.1,89.1,89.1h135.7
			c49.2,0,89.1-40,89.1-89.1V188.1C413,138.9,373.1,99,323.9,99z M384.7,323.9c0,33.5-27.3,60.8-60.8,60.8H188.1
			c-33.5,0-60.8-27.3-60.8-60.8V188.1c0-33.5,27.3-60.8,60.8-60.8h135.7c33.5,0,60.8,27.3,60.8,60.8v135.8H384.7z"/>
		<path class="st1" d="M256,174.3c-45.1,0-81.7,36.6-81.7,81.7s36.6,81.7,81.7,81.7s81.7-36.6,81.7-81.7S301.1,174.3,256,174.3z
			 M256,309.4c-29.4,0-53.4-24-53.4-53.4s24-53.4,53.4-53.4s53.4,24,53.4,53.4S285.4,309.4,256,309.4z"/>
	</g>
</g>
</svg>
