<?xml version="1.0" encoding="utf-8"?>
<!-- Generator: Adobe Illustrator 23.0.0, SVG Export Plug-In . SVG Version: 6.00 Build 0)  -->
<svg version="1.1" id="Layer_1" xmlns:sketch="http://www.bohemiancoding.com/sketch/ns"
	 xmlns="http://www.w3.org/2000/svg" xmlns:xlink="http://www.w3.org/1999/xlink" x="0px" y="0px" viewBox="0 0 32 32"
	 style="enable-background:new 0 0 32 32;" xml:space="preserve">
<style type="text/css">
	.st0{fill-rule:evenodd;clip-rule:evenodd;}
</style>
<title></title>
<desc></desc>
<g id="Page-1">
	<g id="icon-3-mail-envelope-closed">
		<path id="mail-envelope-closed" class="st0" d="M8.1,11.8c0-0.5,0,9.3,0,9.3c0,0.7,0.3,1.1,0.7,1.1h14.4c0.4,0,0.7-0.4,0.7-0.9V12
			c0-0.3-0.1-0.5-0.2-0.9L16,19.6c0,0-7.3-8.1-7.7-8.4C8,11.2,8.1,12,8.1,11.8z M8.1,8.1C7.2,8.1,6.6,9,6.6,9.9v11.7
			c0,1.3,0.6,2.2,1.5,2.2h15.9c0.8,0,1.5-0.9,1.5-2V10.1c0-1.1-0.6-2-1.5-2H8.1L8.1,8.1z M16,17.4l6.5-7.3H9.5L16,17.4L16,17.4z"/>
	</g>
</g>
</svg>
