<?xml version="1.0" encoding="utf-8"?>
<!-- Generator: Adobe Illustrator 23.1.0, SVG Export Plug-In . SVG Version: 6.00 Build 0)  -->
<svg version="1.1" id="Layer_1" xmlns="http://www.w3.org/2000/svg" xmlns:xlink="http://www.w3.org/1999/xlink" x="0px" y="0px"
	 viewBox="0 0 246.1 246.1" style="enable-background:new 0 0 246.1 246.1;" xml:space="preserve">
<style type="text/css">
	.st0{fill:#FFFFFF;}
	.st1{display:none;fill:#FFFFFF;}
</style>
<g id="Icon_ionic-ios-checkmark-circle-outline" transform="translate(-3.375 -3.375)">
	<path id="Path_1" class="st0" d="M189.5,89.1l-10.4-10.7c-0.4-0.5-1-0.7-1.7-0.7l0,0c-0.6,0-1.2,0.2-1.7,0.7l-72.2,72.7l-26.3-26.3
		c-0.9-0.9-2.3-0.9-3.2-0.1c0,0-0.1,0.1-0.1,0.1l-10.5,10.5c-0.9,0.9-0.9,2.4,0,3.3c0,0,0,0,0,0l33.1,33.1c1.8,2,4.3,3.2,6.9,3.4
		c3.1,0,5.9-2.3,6.9-3.3h0.1l79.1-79.5C190.4,91.5,190.4,90,189.5,89.1z"/>
	<path id="Path_2" class="st1" d="M126.4,19.9c58.8,0,106.5,47.7,106.5,106.5c0,28.2-11.2,55.3-31.2,75.3
		c-41.9,41.3-109.3,40.9-150.6-0.9c-41-41.5-41-108.2,0-149.7C71.1,31.1,98.2,19.9,126.4,19.9 M126.4,3.4
		C58.5,3.4,3.4,58.5,3.4,126.4c0,68,55.1,123.1,123.1,123.1s123.1-55.1,123.1-123.1c0,0,0,0,0,0C249.5,58.5,194.4,3.4,126.4,3.4
		C126.5,3.4,126.4,3.4,126.4,3.4z"/>
</g>
</svg>
